<?xml version="1.0" standalone="no"?>
<!DOCTYPE svg PUBLIC "-//W3C//DTD SVG 20010904//EN"
 "http://www.w3.org/TR/2001/REC-SVG-20010904/DTD/svg10.dtd">
<svg version="1.0" xmlns="http://www.w3.org/2000/svg"
 width="700.000000pt" height="700.000000pt" viewBox="0 0 700.000000 700.000000"
 preserveAspectRatio="xMidYMid meet">
<metadata>
Created by potrace 1.11, written by Peter Selinger 2001-2013
</metadata>
<g transform="translate(0.000000,700.000000) scale(0.100000,-0.100000)"
fill="#000000" stroke="none">
<path d="M0 3748 c0 -1788 2 -3249 4 -3247 2 2 543 1197 1201 2654 659 1458
1317 2913 1462 3235 146 322 267 591 270 598 4 9 -293 12 -1466 12 l-1471 0 0
-3252z"/>
<path d="M4033 6993 c4 -6 2868 -6340 2948 -6518 17 -39 18 80 18 3243 l1
3282 -1486 0 c-817 0 -1483 -3 -1481 -7z"/>
<path d="M3466 5693 c-37 -77 -215 -471 -422 -938 l-214 -480 128 -8 c133 -8
1088 -4 1097 5 6 6 -534 1393 -563 1444 -6 11 -13 5 -26 -23z"/>
<path d="M2571 3322 c-8 -14 -715 -1565 -1264 -2769 l-101 -223 -603 0 -603 0
0 -165 0 -165 3500 0 3500 0 0 165 0 165 -628 0 -627 0 -685 1503 -686 1502
-896 3 c-856 2 -898 1 -907 -16z"/>
</g>
</svg>
