<?xml version="1.0" standalone="no"?>
<!DOCTYPE svg PUBLIC "-//W3C//DTD SVG 20010904//EN"
 "http://www.w3.org/TR/2001/REC-SVG-20010904/DTD/svg10.dtd">
<svg version="1.0" xmlns="http://www.w3.org/2000/svg"
 width="700.000000pt" height="700.000000pt" viewBox="0 0 700.000000 700.000000"
 preserveAspectRatio="xMidYMid meet">
<metadata>
Created by potrace 1.11, written by Peter Selinger 2001-2013
</metadata>
<g transform="translate(0.000000,700.000000) scale(0.100000,-0.100000)"
fill="#000000" stroke="none">
<path d="M4260 6991 c-40 -13 -103 -48 -131 -73 -14 -13 -169 -248 -344 -523
-174 -275 -469 -737 -654 -1028 -185 -290 -343 -540 -352 -555 -9 -15 -74
-117 -144 -227 -70 -110 -148 -233 -174 -273 -25 -40 -64 -101 -86 -135 -23
-35 -74 -117 -115 -182 -41 -66 -78 -124 -83 -130 -4 -5 -116 -181 -248 -390
-133 -209 -260 -409 -283 -445 -23 -36 -92 -143 -152 -238 -60 -95 -146 -230
-191 -300 -45 -70 -88 -138 -96 -152 -12 -22 -297 -470 -362 -570 -12 -19 -44
-69 -70 -110 -26 -41 -62 -97 -80 -125 -18 -27 -56 -88 -85 -135 -29 -47 -76
-121 -105 -165 -204 -315 -454 -713 -473 -752 -69 -138 -11 -296 134 -368 51
-25 71 -29 144 -29 71 -1 94 3 140 25 30 14 70 41 88 60 26 26 201 290 247
371 6 10 107 169 225 354 118 185 219 344 225 354 16 27 65 102 86 132 10 15
19 30 19 33 0 3 17 31 39 63 21 31 114 176 206 322 92 146 187 294 210 330 23
36 86 135 140 220 54 85 116 184 139 220 23 36 112 174 196 308 l155 242 60 1
c33 0 139 2 235 4 96 2 310 6 475 9 165 3 422 9 571 12 l272 5 0 -1444 c0
-795 3 -1460 7 -1479 18 -83 86 -162 173 -200 70 -31 183 -33 254 -4 100 41
166 117 184 211 4 22 7 698 7 1503 0 1051 3 1464 11 1471 6 4 25 11 41 15 87
21 535 195 765 298 99 44 401 198 495 253 161 93 381 243 490 335 93 78 237
228 306 319 165 219 237 432 226 661 -7 125 -11 152 -44 250 -57 170 -186 366
-334 510 -136 131 -290 255 -425 340 -76 48 -194 121 -227 139 -21 12 -68 38
-105 59 -175 98 -604 297 -817 377 -33 13 -73 29 -90 36 -16 7 -32 13 -35 14
-3 1 -16 6 -30 12 -14 5 -122 45 -240 88 -186 68 -225 79 -290 81 -41 2 -86 0
-100 -5z m647 -791 c706 -293 1186 -602 1374 -883 123 -183 126 -332 13 -513
-45 -72 -57 -87 -154 -184 -92 -92 -234 -202 -364 -283 -45 -28 -100 -63 -124
-78 -43 -27 -420 -217 -517 -259 -83 -37 -305 -126 -391 -158 l-81 -29 0 1238
c0 1008 2 1239 13 1239 7 0 111 -41 231 -90z m-869 -1515 l0 -965 -32 -1 c-72
-3 -245 -6 -651 -14 -236 -4 -460 -8 -497 -10 l-68 -2 22 36 c23 38 69 111
159 251 92 143 551 865 604 951 126 202 457 719 461 719 1 0 2 -434 2 -965z"/>
</g>
</svg>
